<?xml version="1.0" standalone="no"?>
<!DOCTYPE svg PUBLIC "-//W3C//DTD SVG 20010904//EN"
 "http://www.w3.org/TR/2001/REC-SVG-20010904/DTD/svg10.dtd">
<svg version="1.0" xmlns="http://www.w3.org/2000/svg"
 width="700.000000pt" height="700.000000pt" viewBox="0 0 700.000000 700.000000"
 preserveAspectRatio="xMidYMid meet">
<metadata>
Created by potrace 1.14, written by Peter Selinger 2001-2017
</metadata>
<g transform="translate(0.000000,700.000000) scale(0.100000,-0.100000)"
fill="#000000" stroke="none">
<path d="M3280 6994 c-19 -2 -87 -9 -150 -15 -296 -28 -636 -112 -930 -229
-643 -257 -1206 -711 -1599 -1290 -487 -717 -690 -1600 -565 -2460 143 -987
698 -1863 1529 -2415 779 -517 1711 -698 2640 -514 885 175 1703 728 2209
1494 320 483 500 981 568 1570 16 145 16 589 0 730 -86 724 -352 1347 -803
1885 -122 145 -351 370 -494 484 -510 407 -1117 661 -1775 742 -117 15 -553
27 -630 18z m-1190 -2999 l0 -355 360 0 360 0 0 355 0 355 160 0 160 0 -2
-862 -3 -863 -157 -3 -158 -3 0 376 0 375 -360 0 -360 0 0 -375 0 -376 -157 3
-158 3 -3 863 -2 862 160 0 160 0 0 -355z m1692 -16 l3 -371 325 370 325 371
199 0 c184 1 197 0 185 -16 -8 -9 -175 -194 -372 -412 -196 -218 -356 -399
-355 -403 2 -4 174 -204 383 -444 209 -240 382 -441 383 -446 2 -5 -85 -7
-200 -6 l-203 3 -335 391 -335 392 -3 -394 -2 -395 -158 3 -157 3 -3 863 -2
862 160 0 160 0 2 -371z"/>
</g>
</svg>
